<?xml version="1.0" encoding="iso-8859-1"?>
<!-- Generator: Adobe Illustrator 18.1.1, SVG Export Plug-In . SVG Version: 6.00 Build 0)  -->
<svg version="1.1" id="Capa_1" xmlns="http://www.w3.org/2000/svg" xmlns:xlink="http://www.w3.org/1999/xlink" x="0px" y="0px"
	 viewBox="0 0 15.931 15.931" style="enable-background:new 0 0 15.931 15.931;" xml:space="preserve">
<g>
	<path style="fill:#030104;" d="M14.561,0H1.369C0.614,0,0,0.614,0,1.37v13.192c0,0.755,0.614,1.369,1.369,1.369H14.56
		c0.756,0,1.371-0.614,1.371-1.369V1.37C15.932,0.614,15.317,0,14.561,0z M8.916,5.015H5.617v1.962H8.7v1.58H5.617v3.454h-1.95
		V3.423h5.25L8.916,5.015L8.916,5.015z M12.788,12.566c-2.196,0-2.966-1.212-2.966-2.7V3.423h2.125v6.521
		c0,0.318,0.523,0.496,0.841,0.496V12.566z"/>
</g>
<g>
</g>
<g>
</g>
<g>
</g>
<g>
</g>
<g>
</g>
<g>
</g>
<g>
</g>
<g>
</g>
<g>
</g>
<g>
</g>
<g>
</g>
<g>
</g>
<g>
</g>
<g>
</g>
<g>
</g>
</svg>
